<?xml version="1.0" encoding="UTF-8"?>
<!DOCTYPE svg PUBLIC "-//W3C//DTD SVG 1.1//EN" "http://www.w3.org/Graphics/SVG/1.1/DTD/svg11.dtd">
<!-- Creator: CorelDRAW 2017 -->
<svg xmlns="http://www.w3.org/2000/svg" xml:space="preserve" width="112.597mm" height="103.727mm" version="1.1" style="shape-rendering:geometricPrecision; text-rendering:geometricPrecision; image-rendering:optimizeQuality; fill-rule:evenodd; clip-rule:evenodd"
viewBox="0 0 1021 940"
 xmlns:xlink="http://www.w3.org/1999/xlink">
 <defs>
  <style type="text/css">
   <![CDATA[
    .str1 {stroke:#373435;stroke-width:1.81341}
    .str2 {stroke:black;stroke-width:1.81341}
    .str3 {stroke:#0D3A03;stroke-width:1.81341}
    .str0 {stroke:#7EC92E;stroke-width:1.81341}
    .str4 {stroke:#255722;stroke-width:0.69091}
    .fil2 {fill:none}
    .fil6 {fill:none;fill-rule:nonzero}
    .fil9 {fill:black}
    .fil3 {fill:#0D3A03}
    .fil1 {fill:#255722}
    .fil7 {fill:#6DD20C}
    .fil0 {fill:#7EC92E}
    .fil8 {fill:#FDFDFD}
    .fil10 {fill:white;fill-rule:nonzero}
    .fil5 {fill:black;fill-opacity:0.101961}
    .fil4 {fill:url(#id2);fill-rule:nonzero}
   ]]>
  </style>
    <clipPath id="id0" style="clip-rule:nonzero">
     <path d="M101 655l27 0 0 62 29 -62 36 0 -32 62 34 102 -34 0 -19 -67 -14 27 0 40 -27 0 0 -164zm104 0l28 0 0 164 -28 0 0 -164zm47 0l26 0 33 90 0 -90 26 0 0 164 -26 0 -33 -90 0 90 -26 0 0 -164zm103 0l26 0 33 90 0 -90 26 0 0 164 -26 0 -33 -90 0 90 -26 0 0 -164zm103 0l73 0 0 35 -46 0 0 26 43 0 0 33 -43 0 0 32 47 0 0 37 -75 0 0 -164zm90 0l51 0c9,0 15,4 20,12 5,8 7,17 7,29 0,10 -2,18 -5,25 -2,5 -5,8 -10,11 6,3 11,8 14,15 3,7 5,16 5,26 0,9 -1,16 -3,23 -2,7 -5,12 -9,16 -2,2 -6,4 -10,5 -6,1 -10,2 -12,2l-47 0 0 -164zm28 64l12 0c4,0 7,-1 9,-4 2,-3 3,-7 3,-12 0,-5 -1,-9 -3,-11 -2,-3 -5,-4 -9,-4l-12 0 0 31zm0 64l14 0c5,0 8,-2 10,-5 2,-3 3,-7 3,-12 0,-5 -1,-9 -3,-12 -2,-3 -5,-4 -10,-4l-14 0 0 33zm69 -129l73 0 0 35 -46 0 0 26 43 0 0 33 -43 0 0 32 47 0 0 37 -75 0 0 -164zm90 164l0 -164 46 0c8,0 15,1 19,4 4,3 8,8 11,15 3,7 4,16 4,27 0,9 -1,17 -3,24 -2,7 -5,12 -9,16 -2,3 -6,5 -10,6 3,2 6,4 7,6 1,1 2,4 4,9 2,4 3,8 4,10l13 47 -31 0 -15 -50c-2,-6 -4,-11 -5,-13 -2,-3 -4,-4 -7,-4l-2 0 0 66 -28 0zm28 -97l12 0c1,0 4,-1 7,-2 2,-1 3,-2 4,-5 1,-3 2,-6 2,-10 0,-5 -1,-9 -3,-12 -2,-3 -5,-4 -10,-4l-12 0 0 33zm111 38l0 -34 42 0 0 70c-8,10 -15,17 -22,21 -6,4 -14,6 -22,6 -11,0 -19,-3 -26,-10 -7,-7 -12,-16 -15,-30 -4,-13 -5,-28 -5,-45 0,-18 2,-33 6,-47 4,-13 10,-23 18,-30 6,-5 14,-8 24,-8 10,0 17,2 22,5 5,3 9,8 12,15 3,7 6,16 7,26l-26 9c-1,-6 -3,-11 -6,-14 -3,-3 -6,-5 -10,-5 -6,0 -11,4 -14,12 -4,8 -5,20 -5,37 0,18 2,30 5,38 4,8 9,11 15,11 3,0 6,-1 9,-2 3,-2 6,-4 10,-8l0 -15 -18 0z"/>
    </clipPath>
     <clipPath id="id1">
      <path d="M296 0l462 15 0 646 -462 -15 0 -646z"/>
     </clipPath>
  <linearGradient id="id2" gradientUnits="userSpaceOnUse" x1="610" y1="814" x2="616" y2="696">
   <stop offset="0" style="stop-opacity:1; stop-color:#B1EC74"/>
   <stop offset="0.34902" style="stop-opacity:1; stop-color:#D8F5B9"/>
   <stop offset="1" style="stop-opacity:1; stop-color:white"/>
  </linearGradient>
 </defs>
 <g id="Layer_x0020_1">
  <metadata id="CorelCorpID_0Corel-Layer"/>
  <g id="_2214178121136">
   <path class="fil0 str0" d="M898 852c24,0 44,-20 44,-44l0 -148c0,-24 -20,-44 -44,-44l-76 0c-35,-117 -158,-204 -305,-204 -146,0 -269,87 -305,204l-89 0c-24,0 -44,20 -44,44l0 148c0,24 20,44 44,44 262,0 515,0 775,0z"/>
   <path class="fil1 str1" d="M186 576c54,-129 193,-202 331,-202 138,0 277,74 331,202l47 0c47,0 84,38 84,84l0 147c0,47 -38,84 -84,84l-769 0c-47,0 -84,-38 -84,-84l0 -147c0,-47 38,-84 84,-84l61 0zm687 -40c-67,-129 -211,-202 -356,-202 -145,0 -290,74 -356,202l-35 0c-69,0 -125,56 -125,125l0 147c0,69 56,125 125,125l769 0c69,0 125,-56 125,-125l0 -147c0,-69 -56,-125 -125,-125l-22 0z"/>
   <line class="fil2 str2" x1="215" y1="616" x2="822" y2= "616" />
   <path class="fil3 str3" d="M822 616l-609 0 -89 0c-24,0 -44,20 -44,44l0 147c0,24 20,44 44,44l775 0c24,0 44,-20 44,-44l0 -147c0,-24 -20,-44 -44,-44l-76 0c0,0 0,0 0,0z"/>
   <path class="fil4" d="M101 655l27 0 0 62 29 -62 36 0 -32 62 34 102 -34 0 -19 -67 -14 27 0 40 -27 0 0 -164zm104 0l28 0 0 164 -28 0 0 -164zm47 0l26 0 33 90 0 -90 26 0 0 164 -26 0 -33 -90 0 90 -26 0 0 -164zm103 0l26 0 33 90 0 -90 26 0 0 164 -26 0 -33 -90 0 90 -26 0 0 -164zm103 0l73 0 0 35 -46 0 0 26 43 0 0 33 -43 0 0 32 47 0 0 37 -75 0 0 -164zm90 0l51 0c9,0 15,4 20,12 5,8 7,17 7,29 0,10 -2,18 -5,25 -2,5 -5,8 -10,11 6,3 11,8 14,15 3,7 5,16 5,26 0,9 -1,16 -3,23 -2,7 -5,12 -9,16 -2,2 -6,4 -10,5 -6,1 -10,2 -12,2l-47 0 0 -164zm28 64l12 0c4,0 7,-1 9,-4 2,-3 3,-7 3,-12 0,-5 -1,-9 -3,-11 -2,-3 -5,-4 -9,-4l-12 0 0 31zm0 64l14 0c5,0 8,-2 10,-5 2,-3 3,-7 3,-12 0,-5 -1,-9 -3,-12 -2,-3 -5,-4 -10,-4l-14 0 0 33zm69 -129l73 0 0 35 -46 0 0 26 43 0 0 33 -43 0 0 32 47 0 0 37 -75 0 0 -164zm90 164l0 -164 46 0c8,0 15,1 19,4 4,3 8,8 11,15 3,7 4,16 4,27 0,9 -1,17 -3,24 -2,7 -5,12 -9,16 -2,3 -6,5 -10,6 3,2 6,4 7,6 1,1 2,4 4,9 2,4 3,8 4,10l13 47 -31 0 -15 -50c-2,-6 -4,-11 -5,-13 -2,-3 -4,-4 -7,-4l-2 0 0 66 -28 0zm28 -97l12 0c1,0 4,-1 7,-2 2,-1 3,-2 4,-5 1,-3 2,-6 2,-10 0,-5 -1,-9 -3,-12 -2,-3 -5,-4 -10,-4l-12 0 0 33zm111 38l0 -34 42 0 0 70c-8,10 -15,17 -22,21 -6,4 -14,6 -22,6 -11,0 -19,-3 -26,-10 -7,-7 -12,-16 -15,-30 -4,-13 -5,-28 -5,-45 0,-18 2,-33 6,-47 4,-13 10,-23 18,-30 6,-5 14,-8 24,-8 10,0 17,2 22,5 5,3 9,8 12,15 3,7 6,16 7,26l-26 9c-1,-6 -3,-11 -6,-14 -3,-3 -6,-5 -10,-5 -6,0 -11,4 -14,12 -4,8 -5,20 -5,37 0,18 2,30 5,38 4,8 9,11 15,11 3,0 6,-1 9,-2 3,-2 6,-4 10,-8l0 -15 -18 0z"/>
   <g style="clip-path:url(#id0)">
    <g>
     <g>
      <path id="1" class="fil5" d="M343 825l-4 -1c14,-52 28,-52 34,-66 -9,3 -6,5 -13,8l-24 -54 0 23c-10,-5 -8,-12 -9,-26 -1,2 -1,1 -3,4 -1,3 -1,2 -2,5l-6 31c-7,2 -6,-1 -14,0 5,3 8,6 13,9l0 13c-5,-3 1,-3 -6,-6 -6,-2 -6,-2 -12,-5 -13,-7 -10,-6 -15,-21 -8,-26 -3,-32 0,-60 -3,2 -1,0 -4,4 -7,8 -16,25 -20,35 -7,18 -10,30 -10,51 -9,-5 -11,-23 -15,-32l-31 -63c-3,-5 -5,-10 -7,-16 -1,-3 -2,-6 -3,-9l-5 -9c1,70 26,118 48,179 2,5 2,8 6,11 4,-6 5,-14 6,-22 2,2 1,1 3,3 5,6 8,12 20,18l-5 -17c6,5 5,7 8,19 5,-3 1,-3 9,-5 11,-2 -5,4 3,0l-4 -16c4,8 3,12 7,21 9,-6 4,-10 11,-18l3 13c8,-3 2,-4 11,1 0,-5 -1,-9 -1,-13 1,-4 0,-1 1,-4 1,-4 2,-1 0,-3l2 25c14,-7 9,-18 17,-20l1 14c1,0 1,1 4,0 0,0 3,-1 3,-1z"/>
      <path class="fil5" d="M371 776c-3,8 -3,4 -7,12l41 32c0,0 1,0 1,1l5 5 8 3c-4,-11 -12,-14 -6,-20 3,8 7,15 12,22 6,-6 5,-14 6,-24 5,3 2,1 6,5l16 12c4,2 5,3 9,4 -4,-15 -15,-16 -11,-32 1,5 12,29 14,34 6,-7 6,-17 6,-29 4,11 3,13 10,24 2,-2 1,0 3,-4l6 -33c5,6 2,9 0,18 -2,7 -4,15 -5,23 13,-4 17,-16 25,-25l-7 24c8,0 20,-11 23,-15 8,3 13,8 23,11 -5,-10 -20,-13 -31,-21l-67 -51c0,0 -1,-1 -1,-1l-22 -12 6 5c-4,20 -3,22 -12,26 -5,-4 -12,-18 -15,-24 -11,-17 -9,-12 -7,-35l-7 13c-5,-4 -23,-30 -24,-37 -1,11 6,35 9,46 1,3 3,8 4,10 2,9 0,1 -1,9 0,0 0,1 0,1l0 3c0,0 0,1 0,1 0,7 -2,11 -4,18l-5 -2z"/>
      <path class="fil5" d="M487 753c1,1 3,1 2,5 0,0 1,0 1,0 2,4 -2,-1 3,1 8,3 4,4 7,11 1,4 33,36 41,41 0,0 1,1 1,1 0,0 1,1 1,1 2,6 5,2 13,19l8 -5c-2,-5 -3,-6 -2,-12l8 17c4,-5 4,-9 8,-12 3,-9 4,-11 5,-22 0,-9 2,-12 2,-23 0,-15 3,-38 -2,-51l-4 41c0,15 -1,28 -1,42 -4,-15 -5,-35 -5,-52 1,-26 7,-31 11,-49l-2 2c-8,8 -12,22 -16,31l-3 6 -24 -56c-1,11 1,24 -1,34 -1,5 3,15 5,28 -6,-8 -18,-23 -18,-35 -5,6 -7,0 -19,-18 -6,-8 -11,-20 -17,-28 0,12 5,31 9,43 2,7 4,13 7,19 6,13 3,9 0,21 -11,-5 -25,-15 -38,-17 3,3 17,19 21,19z"/>
      <path class="fil5" d="M583 723c5,13 2,36 2,51 0,10 -1,14 -2,23 -1,11 -2,12 -5,22 1,3 4,6 5,9 3,-3 3,-1 4,-7 -2,2 -1,0 0,2 3,-14 5,-6 8,-23l10 -44c2,-9 5,-15 6,-24 3,7 5,17 10,22 3,3 10,9 11,13 0,1 0,2 0,3 -1,6 1,1 -2,5 -13,-6 -7,-14 -14,-23 -5,-6 -6,0 -4,-5 0,2 -2,5 -2,5 0,0 0,1 0,1 -2,6 0,9 4,13 5,6 9,20 19,36 2,3 4,6 5,9l9 10c-1,-9 -9,-28 -14,-36 -1,-3 -1,-1 -3,-5 -1,-2 -2,-3 -3,-5 1,5 2,1 7,5 7,5 0,5 12,12 13,7 6,12 19,19l-2 3c0,0 0,1 -1,1 -3,3 0,3 -4,3 -2,-2 -8,-9 -8,-11 5,7 -1,3 9,13l-10 7c0,0 -1,8 12,-4l-1 8c11,-2 17,1 26,0 8,-1 0,0 8,-4 3,-2 2,-1 4,-2 0,0 1,0 1,0l4 -5c-1,-3 2,-27 0,-22 0,0 -1,-1 -1,-1l-2 -1c-8,-4 -7,-4 -10,-10 -1,-2 -8,-13 -17,-14l0 1c0,0 -1,1 -1,1l-6 -7c1,9 20,49 21,52 2,17 1,5 -3,10 -8,-35 -17,-2 -15,-33l-4 -33c-2,-9 2,-2 -7,-8 0,7 0,13 0,20 0,8 3,14 -1,20 -3,-9 -5,-22 -5,-32 0,0 1,-1 1,0l3 0c1,-7 2,-6 -1,-11l-4 2 -2 7 -32 -36c-7,-7 -5,-9 -4,-21 -5,5 -3,5 -7,11 -31,-27 -24,7 -24,9z"/>
      <path class="fil5" d="M642 738l93 80c2,1 2,1 3,2l3 3c0,0 1,1 1,1l5 3c3,1 4,2 7,3 1,-1 8,-2 2,-16 -2,-5 0,1 -3,-6l-8 -21c-8,-19 -10,-21 -17,-42 0,-1 -1,-2 -1,-3l-4 -12c-5,-20 1,-14 -7,-16 -6,16 2,20 -12,38 -4,5 -4,7 -10,10 -5,-13 -1,-26 -2,-39 -1,4 -1,3 -4,7 -5,-15 -7,-31 -6,-48 -5,-3 1,2 -4,0l-2 -19c-6,21 -8,37 -11,61 -3,-1 2,2 -2,-1 -1,-1 -2,-2 -3,-3 -6,-5 -15,-15 -22,-17 3,11 13,22 16,35l-24 -8c4,4 6,6 11,10z"/>
      <path class="fil5" d="M717 713c7,1 2,-4 7,16l4 12c0,1 1,2 1,3 7,21 10,24 17,42l8 21c3,7 1,1 3,6 5,15 -1,15 -2,16 2,1 3,3 10,1l3 -18c6,6 6,12 14,9 4,-2 2,-1 5,-5l3 7c9,-14 11,-37 11,-54 1,-21 9,-37 10,-54l-17 15c-2,-7 -10,-23 -14,-30 0,0 -1,-1 -1,-1 0,0 -1,-1 -1,-1l-2 -2c3,48 11,43 -17,62 -17,-20 -7,-29 -2,-40l-15 9c-11,-27 -9,-13 -10,-53 -5,5 -5,11 -8,16l-6 -14 0 35z"/>
      <path class="fil5" d="M235 828c0,-11 -14,-31 -19,-39 -12,-18 -21,-26 -35,-40l-26 -19c-11,-7 -28,-16 -44,-19 0,0 1,1 1,1 0,1 1,1 1,1l28 28c11,11 17,21 30,31 8,7 45,52 64,56z"/>
      <path class="fil5" d="M427 743l22 12c0,0 1,0 1,1l67 51c11,8 26,12 31,21l4 1c-1,-3 -3,-6 -5,-9 -4,-7 -6,-5 -2,-6 0,0 -1,-1 -1,-1 0,0 -1,-1 -1,-1 -9,-5 -40,-37 -41,-41 -3,-8 1,-8 -7,-11 -5,-2 -1,3 -3,-1 0,0 -1,0 -1,0 2,-4 -1,-4 -2,-5l-1 8c-19,-6 -11,-11 -29,-31 -3,-4 -2,-2 -4,-6l-3 -8c-2,4 -4,7 -7,11 -5,8 -3,10 -9,3l-2 8 -19 -4c3,4 8,8 13,9z"/>
      <path class="fil5" d="M826 804c2,-6 8,-16 12,-23 4,-8 7,-18 10,-27 6,-19 12,-37 18,-55 -27,19 -74,113 -74,130 7,-2 14,-6 19,-10 4,-3 6,-5 8,-8l8 -8z"/>
      <path class="fil5" d="M589 823l3 7c0,0 0,1 1,1 15,-18 20,-24 22,-56l4 6c7,13 -10,9 -9,48 11,-4 11,-7 17,-15 1,-1 2,-2 2,-3l3 -3c6,9 7,14 16,20 3,-6 -2,-8 1,-15 2,5 2,10 2,16l10 -7c-10,-10 -4,-5 -9,-13 1,2 6,10 8,11 4,0 1,0 4,-3 0,0 0,-1 1,-1l2 -3c-14,-7 -6,-12 -19,-19 -12,-7 -6,-8 -12,-12 -5,-4 -6,0 -7,-5 1,2 2,3 3,5 2,3 1,2 3,5 4,9 13,27 14,36l-9 -10c-2,-3 -4,-6 -5,-9 -10,-17 -14,-31 -19,-36 -4,-5 -6,-7 -4,-13 0,0 0,-1 0,-1 0,0 2,-3 2,-5 -2,5 -2,-1 4,5 7,8 1,17 14,23 3,-4 1,1 2,-5 0,-1 0,-2 0,-3 -1,-4 -8,-9 -11,-13 -5,-6 -7,-15 -10,-22 -1,8 -4,14 -6,24l-10 44c-3,17 -5,9 -8,23z"/>
      <path class="fil5" d="M826 804c-6,11 -9,13 -13,29 24,-5 50,-30 71,-47 6,-5 17,-12 22,-17 -14,0 -33,6 -45,11 -23,9 -26,20 -34,24z"/>
      <path class="fil5" d="M339 823l4 1 3 -4c3,4 6,6 11,7 -2,-5 -8,-12 -5,-18l8 22 8 -7 1 -25c5,10 2,21 2,32 13,-6 10,-12 18,-18l-1 17 13 -8 9 4 -5 -5c0,0 -1,0 -1,-1l-41 -32c5,-8 4,-4 7,-12 2,-8 6,-10 8,-19 -12,6 -38,63 -39,66z"/>
      <path class="fil5" d="M652 753l4 -2c3,5 2,4 1,11l-3 0c0,0 -1,0 -1,0 0,10 2,23 5,32 5,-6 2,-12 1,-20 0,-6 0,-13 0,-20 10,5 5,-2 7,8l4 33c-2,31 7,-2 15,33 4,-5 6,7 3,-10 -1,-4 -20,-44 -21,-52l6 7c0,0 1,-1 1,-1l0 -1c8,1 16,12 17,14 3,6 2,6 10,10l2 1c0,0 1,1 1,1 2,-4 -1,19 0,22 7,-3 2,-1 4,1l0 10c4,-2 6,-5 9,-8 10,-12 3,-7 11,-10 4,5 3,7 5,13 5,-2 3,-2 9,-3 0,0 -1,-1 -1,-1l-3 -3c-2,-1 -1,-1 -3,-2l-93 -80c5,5 10,5 10,15z"/>
      <path class="fil5" d="M588 761c0,-4 6,-8 8,-18 1,-3 0,-2 1,-4l4 -9c-2,-4 -10,-19 -13,-19l-1 50z"/>
      <path class="fil5" d="M371 776c-3,8 -3,4 -7,12l41 32c0,0 1,0 1,1l5 5 8 3c-4,-11 -12,-14 -6,-20 3,8 7,15 12,22 6,-6 5,-14 6,-24 5,3 2,1 6,5l16 12c4,2 5,3 9,4 -4,-15 -15,-16 -11,-32 1,5 12,29 14,34 6,-7 6,-17 6,-29 4,11 3,13 10,24 2,-2 1,0 3,-4l6 -33c5,6 2,9 0,18 -2,7 -4,15 -5,23 13,-4 17,-16 25,-25l-7 24c8,0 20,-11 23,-15 8,3 13,8 23,11 -5,-10 -20,-13 -31,-21l-67 -51c0,0 -1,-1 -1,-1l-22 -12 6 5c-4,20 -3,22 -12,26 -5,-4 -12,-18 -15,-24 -11,-17 -9,-12 -7,-35l-7 13c-5,-4 -23,-30 -24,-37 -1,11 6,35 9,46 1,3 3,8 4,10 2,9 0,1 -1,9 0,0 0,1 0,1l0 3c0,0 0,1 0,1 0,7 -2,11 -4,18l-5 -2z"/>
      <path class="fil5" d="M487 753c1,1 3,1 2,5 0,0 1,0 1,0 2,4 -2,-1 3,1 8,3 4,4 7,11 1,4 33,36 41,41 0,0 1,1 1,1 0,0 1,1 1,1 2,6 5,2 13,19l8 -5c-2,-5 -3,-6 -2,-12l8 17c4,-5 4,-9 8,-12 3,-9 4,-11 5,-22 0,-9 2,-12 2,-23 0,-15 3,-38 -2,-51l-4 41c0,15 -1,28 -1,42 -4,-15 -5,-35 -5,-52 1,-26 7,-31 11,-49l-2 2c-8,8 -12,22 -16,31l-3 6 -24 -56c-1,11 1,24 -1,34 -1,5 3,15 5,28 -6,-8 -18,-23 -18,-35 -5,6 -7,0 -19,-18 -6,-8 -11,-20 -17,-28 0,12 5,31 9,43 2,7 4,13 7,19 6,13 3,9 0,21 -11,-5 -25,-15 -38,-17 3,3 17,19 21,19z"/>
      <path class="fil5" d="M583 723c5,13 2,36 2,51 0,10 -1,14 -2,23 -1,11 -2,12 -5,22 1,3 4,6 5,9 3,-3 3,-1 4,-7 -2,2 -1,0 0,2 3,-14 5,-6 8,-23l10 -44c2,-9 5,-15 6,-24 3,7 5,17 10,22 3,3 10,9 11,13 0,1 0,2 0,3 -1,6 1,1 -2,5 -13,-6 -7,-14 -14,-23 -5,-6 -6,0 -4,-5 0,2 -2,5 -2,5 0,0 0,1 0,1 -2,6 0,9 4,13 5,6 9,20 19,36 2,3 4,6 5,9l9 10c-1,-9 -9,-28 -14,-36 -1,-3 -1,-1 -3,-5 -1,-2 -2,-3 -3,-5 1,5 2,1 7,5 7,5 0,5 12,12 13,7 6,12 19,19l-2 3c0,0 0,1 -1,1 -3,3 0,3 -4,3 -2,-2 -8,-9 -8,-11 5,7 -1,3 9,13l-10 7c0,0 -1,8 12,-4l-1 8c11,-2 17,1 26,0 8,-1 0,0 8,-4 3,-2 2,-1 4,-2 0,0 1,0 1,0l4 -5c-1,-3 2,-27 0,-22 0,0 -1,-1 -1,-1l-2 -1c-8,-4 -7,-4 -10,-10 -1,-2 -8,-13 -17,-14l0 1c0,0 -1,1 -1,1l-6 -7c1,9 20,49 21,52 2,17 1,5 -3,10 -8,-35 -17,-2 -15,-33l-4 -33c-2,-9 2,-2 -7,-8 0,7 0,13 0,20 0,8 3,14 -1,20 -3,-9 -5,-22 -5,-32 0,0 1,-1 1,0l3 0c1,-7 2,-6 -1,-11l-4 2 -2 7 -32 -36c-7,-7 -5,-9 -4,-21 -5,5 -3,5 -7,11 -31,-27 -24,7 -24,9z"/>
      <path class="fil5" d="M642 738l93 80c2,1 2,1 3,2l3 3c0,0 1,1 1,1l5 3c3,1 4,2 7,3 1,-1 8,-2 2,-16 -2,-5 0,1 -3,-6l-8 -21c-8,-19 -10,-21 -17,-42 0,-1 -1,-2 -1,-3l-4 -12c-5,-20 1,-14 -7,-16 -6,16 2,20 -12,38 -4,5 -4,7 -10,10 -5,-13 -1,-26 -2,-39 -1,4 -1,3 -4,7 -5,-15 -7,-31 -6,-48 -5,-3 1,2 -4,0l-2 -19c-6,21 -8,37 -11,61 -3,-1 2,2 -2,-1 -1,-1 -2,-2 -3,-3 -6,-5 -15,-15 -22,-17 3,11 13,22 16,35l-24 -8c4,4 6,6 11,10z"/>
      <path class="fil5" d="M717 713c7,1 2,-4 7,16l4 12c0,1 1,2 1,3 7,21 10,24 17,42l8 21c3,7 1,1 3,6 5,15 -1,15 -2,16 2,1 3,3 10,1l3 -18c6,6 6,12 14,9 4,-2 2,-1 5,-5l3 7c9,-14 11,-37 11,-54 1,-21 9,-37 10,-54l-17 15c-2,-7 -10,-23 -14,-30 0,0 -1,-1 -1,-1 0,0 -1,-1 -1,-1l-2 -2c3,48 11,43 -17,62 -17,-20 -7,-29 -2,-40l-15 9c-11,-27 -9,-13 -10,-53 -5,5 -5,11 -8,16l-6 -14 0 35z"/>
      <path class="fil5" d="M235 828c0,-11 -14,-31 -19,-39 -12,-18 -21,-26 -35,-40l-26 -19c-11,-7 -28,-16 -44,-19 0,0 1,1 1,1 0,1 1,1 1,1l28 28c11,11 17,21 30,31 8,7 45,52 64,56z"/>
      <path class="fil5" d="M427 743l22 12c0,0 1,0 1,1l67 51c11,8 26,12 31,21l4 1c-1,-3 -3,-6 -5,-9 -4,-7 -6,-5 -2,-6 0,0 -1,-1 -1,-1 0,0 -1,-1 -1,-1 -9,-5 -40,-37 -41,-41 -3,-8 1,-8 -7,-11 -5,-2 -1,3 -3,-1 0,0 -1,0 -1,0 2,-4 -1,-4 -2,-5l-1 8c-19,-6 -11,-11 -29,-31 -3,-4 -2,-2 -4,-6l-3 -8c-2,4 -4,7 -7,11 -5,8 -3,10 -9,3l-2 8 -19 -4c3,4 8,8 13,9z"/>
      <path class="fil5" d="M826 804c2,-6 8,-16 12,-23 4,-8 7,-18 10,-27 6,-19 12,-37 18,-55 -27,19 -74,113 -74,130 7,-2 14,-6 19,-10 4,-3 6,-5 8,-8l8 -8z"/>
      <path class="fil5" d="M589 823l3 7c0,0 0,1 1,1 15,-18 20,-24 22,-56l4 6c7,13 -10,9 -9,48 11,-4 11,-7 17,-15 1,-1 2,-2 2,-3l3 -3c6,9 7,14 16,20 3,-6 -2,-8 1,-15 2,5 2,10 2,16l10 -7c-10,-10 -4,-5 -9,-13 1,2 6,10 8,11 4,0 1,0 4,-3 0,0 0,-1 1,-1l2 -3c-14,-7 -6,-12 -19,-19 -12,-7 -6,-8 -12,-12 -5,-4 -6,0 -7,-5 1,2 2,3 3,5 2,3 1,2 3,5 4,9 13,27 14,36l-9 -10c-2,-3 -4,-6 -5,-9 -10,-17 -14,-31 -19,-36 -4,-5 -6,-7 -4,-13 0,0 0,-1 0,-1 0,0 2,-3 2,-5 -2,5 -2,-1 4,5 7,8 1,17 14,23 3,-4 1,1 2,-5 0,-1 0,-2 0,-3 -1,-4 -8,-9 -11,-13 -5,-6 -7,-15 -10,-22 -1,8 -4,14 -6,24l-10 44c-3,17 -5,9 -8,23z"/>
      <path class="fil5" d="M826 804c-6,11 -9,13 -13,29 24,-5 50,-30 71,-47 6,-5 17,-12 22,-17 -14,0 -33,6 -45,11 -23,9 -26,20 -34,24z"/>
      <path class="fil5" d="M339 823l4 1 3 -4c3,4 6,6 11,7 -2,-5 -8,-12 -5,-18l8 22 8 -7 1 -25c5,10 2,21 2,32 13,-6 10,-12 18,-18l-1 17 13 -8 9 4 -5 -5c0,0 -1,0 -1,-1l-41 -32c5,-8 4,-4 7,-12 2,-8 6,-10 8,-19 -12,6 -38,63 -39,66z"/>
      <path class="fil5" d="M652 753l4 -2c3,5 2,4 1,11l-3 0c0,0 -1,0 -1,0 0,10 2,23 5,32 5,-6 2,-12 1,-20 0,-6 0,-13 0,-20 10,5 5,-2 7,8l4 33c-2,31 7,-2 15,33 4,-5 6,7 3,-10 -1,-4 -20,-44 -21,-52l6 7c0,0 1,-1 1,-1l0 -1c8,1 16,12 17,14 3,6 2,6 10,10l2 1c0,0 1,1 1,1 2,-4 -1,19 0,22 7,-3 2,-1 4,1l0 10c4,-2 6,-5 9,-8 10,-12 3,-7 11,-10 4,5 3,7 5,13 5,-2 3,-2 9,-3 0,0 -1,-1 -1,-1l-3 -3c-2,-1 -1,-1 -3,-2l-93 -80c5,5 10,5 10,15z"/>
      <path class="fil5" d="M588 761c0,-4 6,-8 8,-18 1,-3 0,-2 1,-4l4 -9c-2,-4 -10,-19 -13,-19l-1 50z"/>
     </g>
    </g>
   </g>
   <path class="fil6" d="M101 655l27 0 0 62 29 -62 36 0 -32 62 34 102 -34 0 -19 -67 -14 27 0 40 -27 0 0 -164zm104 0l28 0 0 164 -28 0 0 -164zm47 0l26 0 33 90 0 -90 26 0 0 164 -26 0 -33 -90 0 90 -26 0 0 -164zm103 0l26 0 33 90 0 -90 26 0 0 164 -26 0 -33 -90 0 90 -26 0 0 -164zm103 0l73 0 0 35 -46 0 0 26 43 0 0 33 -43 0 0 32 47 0 0 37 -75 0 0 -164zm90 0l51 0c9,0 15,4 20,12 5,8 7,17 7,29 0,10 -2,18 -5,25 -2,5 -5,8 -10,11 6,3 11,8 14,15 3,7 5,16 5,26 0,9 -1,16 -3,23 -2,7 -5,12 -9,16 -2,2 -6,4 -10,5 -6,1 -10,2 -12,2l-47 0 0 -164zm28 64l12 0c4,0 7,-1 9,-4 2,-3 3,-7 3,-12 0,-5 -1,-9 -3,-11 -2,-3 -5,-4 -9,-4l-12 0 0 31zm0 64l14 0c5,0 8,-2 10,-5 2,-3 3,-7 3,-12 0,-5 -1,-9 -3,-12 -2,-3 -5,-4 -10,-4l-14 0 0 33zm69 -129l73 0 0 35 -46 0 0 26 43 0 0 33 -43 0 0 32 47 0 0 37 -75 0 0 -164zm90 164l0 -164 46 0c8,0 15,1 19,4 4,3 8,8 11,15 3,7 4,16 4,27 0,9 -1,17 -3,24 -2,7 -5,12 -9,16 -2,3 -6,5 -10,6 3,2 6,4 7,6 1,1 2,4 4,9 2,4 3,8 4,10l13 47 -31 0 -15 -50c-2,-6 -4,-11 -5,-13 -2,-3 -4,-4 -7,-4l-2 0 0 66 -28 0zm28 -97l12 0c1,0 4,-1 7,-2 2,-1 3,-2 4,-5 1,-3 2,-6 2,-10 0,-5 -1,-9 -3,-12 -2,-3 -5,-4 -10,-4l-12 0 0 33zm111 38l0 -34 42 0 0 70c-8,10 -15,17 -22,21 -6,4 -14,6 -22,6 -11,0 -19,-3 -26,-10 -7,-7 -12,-16 -15,-30 -4,-13 -5,-28 -5,-45 0,-18 2,-33 6,-47 4,-13 10,-23 18,-30 6,-5 14,-8 24,-8 10,0 17,2 22,5 5,3 9,8 12,15 3,7 6,16 7,26l-26 9c-1,-6 -3,-11 -6,-14 -3,-3 -6,-5 -10,-5 -6,0 -11,4 -14,12 -4,8 -5,20 -5,37 0,18 2,30 5,38 4,8 9,11 15,11 3,0 6,-1 9,-2 3,-2 6,-4 10,-8l0 -15 -18 0z"/>
   <g>
    <g style="clip-path:url(#id1)">
     <image x="296" y="0" width="462" height="660" xlink:href="Kinneberg logo_Images\Kinneberg logo_ImgID1.png"/>
    </g>
   </g>
   <path class="fil7 str4" d="M475 34c55,111 64,244 22,400 3,-104 -33,-181 -85,-246 25,61 57,120 44,192l-45 -16c34,47 36,95 12,142 -12,-49 -50,-73 -96,-90 44,40 81,84 71,155l-2 45 279 0c-2,-71 5,-200 53,-230 -50,3 -77,56 -97,124 -9,-120 2,-230 72,-307 -60,36 -92,112 -114,201 5,-138 -33,-261 -114,-370z"/>
   <path class="fil8" d="M435 616c7,-18 2,-55 -8,-69 16,12 25,13 28,32 13,-33 11,-66 4,-99 17,21 29,49 28,88 8,-62 32,-111 66,-155 -31,45 -43,96 -28,158 16,-21 13,-44 2,-68 10,5 19,12 19,26 3,-22 13,-32 26,-37 -12,33 -29,65 -7,103l17 -3c21,-61 13,-114 -12,-163 29,38 52,125 50,186l-185 0z"/>
   <g>
    <path class="fil9" d="M885 910c0,-2 0,-4 0,-6 0,-10 2,-19 10,-27 7,-7 16,-10 26,-10 7,0 15,1 21,6 6,4 10,10 12,17l3 8 -18 4 18 5 -2 7c-1,5 -3,9 -6,13 -3,4 -7,7 -11,9 -5,2 -10,3 -15,3 -6,0 -12,-1 -18,-3 -3,-1 -6,-3 -8,-6l0 8 -112 0 0 -71 33 0 0 41 19 0 0 -41 33 0 0 41 16 0zm39 -7l-1 -4c0,0 0,-1 0,-1 0,0 0,-1 -1,-1 0,0 -1,0 -1,0 -1,0 -2,0 -2,1 -1,1 -1,5 -1,6 0,2 0,6 1,7 0,0 1,0 2,0 0,0 1,0 2,0 1,-1 1,-3 2,-4l1 -4zm-223 -24l0 -11 61 0 0 28 -2 0 0 15 3 0 0 28 -62 0 0 -10c-3,4 -7,7 -11,8 -5,2 -10,3 -15,3 -6,0 -12,-1 -18,-3 -6,-3 -10,-7 -13,-12 0,0 0,-1 -1,-1l0 16 -33 0 0 -38 -14 38 -29 0 -14 -37c0,0 0,1 -1,1 -1,2 -2,3 -4,5 1,1 2,2 2,3l14 27 -37 0 -5 -10 0 10 -90 0 0 -9c-3,3 -6,5 -10,7 -5,2 -11,3 -16,3 -9,0 -19,-1 -25,-8 -5,-5 -8,-11 -8,-19l-1 -8 8 0c-3,-4 -5,-9 -5,-14 0,-4 1,-9 4,-12 3,-4 6,-7 11,-9 5,-2 11,-3 17,-3 7,0 15,1 21,5 2,2 4,3 5,5l0 -10 93 0c5,0 10,0 14,2 0,0 0,0 0,0l-1 -2 35 0 7 21 6 -21 55 0 0 15c1,-2 3,-4 5,-6 7,-7 16,-10 26,-10 7,0 15,1 21,6 2,2 4,4 6,6zm0 21l-10 2 10 3 0 -5zm-23 2l-1 -4c0,0 0,-1 0,-1 0,0 0,-1 -1,-1 0,0 -1,0 -1,0 -1,0 -2,0 -2,1 -1,1 -1,5 -1,6 0,2 0,6 1,7 0,0 1,0 2,0 0,0 1,0 2,0 1,-1 1,-3 2,-4l1 -4zm-392 -34l28 0 9 13 0 -13 32 0 0 71 -28 0 -8 -12 0 12 -32 0 0 -21 -5 21 -29 0 -4 -13 -4 13 -60 0 -3 -9 -8 0 -3 9 -78 0 0 -71 33 0 0 41 21 0 16 -41 30 0 16 43 -10 -43 33 0 1 4 1 -4 28 0 1 4 1 -4 21 0z"/>
   </g>
   <polygon class="fil10" points="103,877 120,877 120,918 147,918 147,932 103,932 "/>
   <path id="1" class="fil10" d="M189 923l-19 0 -3 9 -17 0 21 -55 19 0 21 55 -18 0 -3 -9zm-4 -12l-6 -20 -6 20 12 0z"/>
   <polygon id="2" class="fil10" points="211,877 227,877 233,907 241,877 257,877 266,907 272,877 288,877 276,932 259,932 250,897 240,932 223,932 "/>
   <polygon id="3" class="fil10" points="295,877 310,877 331,907 331,877 347,877 347,932 331,932 311,901 311,932 295,932 "/>
   <path id="4" class="fil10" d="M382 913l16 -1c0,3 1,5 2,6 2,2 4,3 7,3 2,0 4,-1 6,-2 1,-1 2,-2 2,-4 0,-1 -1,-3 -2,-4 -1,-1 -4,-2 -9,-3 -7,-2 -13,-4 -16,-7 -3,-3 -5,-6 -5,-11 0,-3 1,-5 2,-8 2,-3 4,-4 7,-6 3,-1 8,-2 14,-2 7,0 12,1 16,4 4,3 6,7 7,12l-16 1c0,-2 -1,-4 -3,-5 -1,-1 -3,-2 -6,-2 -2,0 -3,0 -4,1 -1,1 -1,2 -1,3 0,1 0,2 1,2 1,1 3,1 6,2 7,2 13,3 16,5 3,2 6,4 7,6 1,2 2,5 2,8 0,4 -1,7 -3,10 -2,3 -5,5 -8,7 -3,2 -8,2 -13,2 -9,0 -16,-2 -19,-5 -4,-4 -6,-8 -6,-14z"/>
   <polygon id="5" class="fil10" points="441,877 487,877 487,888 459,888 459,897 485,897 485,908 459,908 459,919 488,919 488,932 441,932 "/>
   <path id="6" class="fil10" d="M498 932l0 -55 28 0c5,0 9,0 12,1 3,1 5,3 7,5 2,2 3,5 3,9 0,3 -1,6 -2,8 -1,2 -3,4 -5,5 -1,1 -3,2 -6,2 2,1 3,1 4,2 1,0 2,1 3,3 1,1 2,3 2,3l8 16 -19 0 -9 -17c-1,-2 -2,-4 -3,-4 -1,-1 -3,-1 -4,-1l-1 0 0 22 -17 0zm17 -33l7 0c1,0 2,0 5,-1 1,0 2,-1 3,-2 1,-1 1,-2 1,-3 0,-2 -1,-3 -2,-4 -1,-1 -3,-1 -6,-1l-7 0 0 11z"/>
   <polygon id="7" class="fil10" points="552,877 570,877 582,916 594,877 612,877 591,932 573,932 "/>
   <polygon id="8" class="fil10" points="619,877 636,877 636,932 619,932 "/>
   <path id="9" class="fil10" d="M686 909l15 4c-1,4 -3,8 -5,10 -2,3 -5,5 -8,6 -3,1 -7,2 -12,2 -6,0 -11,-1 -15,-3 -4,-2 -7,-5 -10,-9 -3,-4 -4,-10 -4,-17 0,-9 2,-16 7,-21 5,-5 12,-7 21,-7 7,0 12,1 16,4 4,3 7,7 9,13l-15 3c-1,-2 -1,-3 -2,-4 -1,-1 -2,-2 -3,-3 -1,-1 -3,-1 -5,-1 -4,0 -7,2 -9,5 -2,2 -2,6 -2,11 0,6 1,10 3,13 2,2 4,3 8,3 3,0 6,-1 7,-3 2,-2 3,-4 4,-8z"/>
   <polygon id="10" class="fil10" points="710,877 755,877 755,888 727,888 727,897 753,897 753,908 727,908 727,919 756,919 756,932 710,932 "/>
   <polygon id="11" class="fil10" points="792,877 809,877 809,918 835,918 835,932 792,932 "/>
   <polygon id="12" class="fil10" points="844,877 861,877 861,918 887,918 887,932 844,932 "/>
   <path id="13" class="fil10" d="M931 909l15 4c-1,4 -3,8 -5,10 -2,3 -5,5 -8,6 -3,1 -7,2 -12,2 -6,0 -11,-1 -15,-3 -4,-2 -7,-5 -10,-9 -3,-4 -4,-10 -4,-17 0,-9 2,-16 7,-21 5,-5 12,-7 21,-7 7,0 12,1 16,4 4,3 7,7 9,13l-15 3c-1,-2 -1,-3 -2,-4 -1,-1 -2,-2 -3,-3 -1,-1 -3,-1 -5,-1 -4,0 -7,2 -9,5 -2,2 -2,6 -2,11 0,6 1,10 3,13 2,2 4,3 8,3 3,0 6,-1 7,-3 2,-2 3,-4 4,-8z"/>
  </g>
 </g>
</svg>
